<svg width="62.000000" height="48.084106" viewBox="0 0 62 48.0841" fill="none" xmlns="http://www.w3.org/2000/svg" xmlns:xlink="http://www.w3.org/1999/xlink">
	<desc>
			Created with Pixso.
	</desc>
	<defs/>
	<path id="Vector" d="M31 32.9767L31 40.0304" stroke="#EB601D" stroke-opacity="1.000000" stroke-width="2.000000" stroke-linecap="round"/>
	<path id="Vector" d="M20.5918 47.0841L21.6025 43.2559C21.7373 42.7444 22.1016 42.2841 22.6328 41.9533C23.1641 41.6224 23.8301 41.4415 24.5176 41.4412L37.4824 41.4412C38.1699 41.4415 38.8359 41.6224 39.3672 41.9533C39.8984 42.2841 40.2627 42.7444 40.3975 43.2559L41.4082 47.0841L20.5918 47.0841Z" stroke="#EB601D" stroke-opacity="1.000000" stroke-width="2.000000" stroke-linejoin="round"/>
	<path id="Vector" d="M52 8.05371L54.8467 8.76697C57.8174 9.51184 59.3018 9.88428 60.1514 10.7714C61 11.6584 61 12.8367 61 15.1909L61 15.3557C61 17.2969 61 18.2697 60.3789 19.0642C59.7578 19.8588 58.627 20.3305 56.3711 21.2762L47.5 24.9825M10 8.05371L7.15332 8.76697C4.18262 9.51184 2.69824 9.88428 1.84863 10.7714C1 11.6584 1 12.8389 1 15.1909L1 15.3557C1 17.2969 1 18.2697 1.62109 19.0642C2.24219 19.8588 3.37305 20.3305 5.62891 21.2762L14.5 24.9825M31 8.05371C31.8516 8.05371 32.4219 8.82117 33.5615 10.3628L33.8564 10.7601C34.1797 11.1979 34.3418 11.4147 34.5938 11.5591C34.8486 11.7036 35.1641 11.7578 35.7939 11.8638L36.3643 11.9631C38.5781 12.3401 39.6846 12.5275 39.9492 13.1639C40.2129 13.8027 39.457 14.4664 37.9482 15.7936L37.5576 16.1367C37.1289 16.5136 36.9131 16.701 36.8174 16.9357C36.7207 17.1705 36.7539 17.421 36.8174 17.9244L36.877 18.3826C37.1055 20.1545 37.2188 21.0415 36.5322 21.4343C35.8418 21.827 34.8037 21.4681 32.7314 20.7504L32.1973 20.5652C31.6064 20.3621 31.3115 20.2606 31 20.2606C30.6885 20.2606 30.3936 20.3621 29.8027 20.5652L29.2686 20.7504C27.1963 21.4704 26.1582 21.827 25.4678 21.4343C24.7783 21.0415 24.8945 20.1545 25.123 18.3826L25.1826 17.9244C25.2461 17.421 25.2793 17.1705 25.1826 16.9357C25.0869 16.7032 24.8711 16.5136 24.4424 16.1367L24.0518 15.7936C22.543 14.4664 21.7871 13.8027 22.0508 13.1639C22.3154 12.5275 23.4219 12.3401 25.6357 11.9631L26.2061 11.8638C26.8359 11.7578 27.1514 11.7058 27.4062 11.5591C27.6582 11.4147 27.8203 11.1979 28.1436 10.7601L28.4385 10.3628C29.5781 8.82117 30.1484 8.05371 31 8.05371Z" stroke="#EB601D" stroke-opacity="1.000000" stroke-width="2.000000"/>
	<path id="Vector" d="M48.875 47.0841L13.126 47.0841M45.8955 2.05127C48.1035 2.37616 49.4141 2.7356 50.543 3.81396C51.9648 5.16418 51.8896 6.62274 51.7383 9.53986C51.2021 20.0308 48.1631 33.259 31.0039 33.259C13.8438 33.259 10.8027 20.033 10.2598 9.53986C10.1113 6.62274 10.0371 5.16187 11.4521 3.81396C12.8701 2.46368 14.5645 2.24249 17.958 1.80011C22.2695 1.2536 26.6318 0.986145 31.001 1.00055C33.1396 1.00055 35.1299 1.05817 36.959 1.15723" stroke="#EB601D" stroke-opacity="1.000000" stroke-width="2.000000"/>
</svg>
