<svg width="114.560547" height="46.745728" viewBox="0 0 114.561 46.7457" fill="none" xmlns="http://www.w3.org/2000/svg" xmlns:xlink="http://www.w3.org/1999/xlink">
	<desc>
			Created with Pixso.
	</desc>
	<defs/>
	<path id="Vector" d="M6.31348 30.0333C8.21582 24.8258 14.457 21.0069 21.8604 21.0069C30.7754 21.0069 38.0039 26.5455 38.0039 33.3763C38.0039 40.2071 30.7754 45.7457 21.8604 45.7457C13.7129 45.7457 6.97363 41.1221 5.87207 35.1122" stroke="#EB601D" stroke-opacity="1.000000" stroke-width="2.000000"/>
	<path id="Vector" d="M98.2441 44.4766C89.7861 44.4766 82.9287 39.2227 82.9287 32.7418C82.9287 26.2607 89.7861 21.0069 98.2441 21.0069C106.703 21.0069 113.561 26.2607 113.561 32.7418C113.561 39.2227 106.703 44.4766 98.2441 44.4766Z" stroke="#EB601D" stroke-opacity="1.000000" stroke-width="2.000000"/>
	<path id="Vector" d="M24.5283 13.1415L47.4424 15.2775" stroke="#EB601D" stroke-opacity="1.000000" stroke-width="2.000000"/>
	<path id="Vector" d="M27.3154 21.0069L35.9844 14.2106" stroke="#EB601D" stroke-opacity="1.000000" stroke-width="2.000000"/>
	<path id="Vector" d="M21.4971 32.7418L27.3154 21.0069" stroke="#EB601D" stroke-opacity="1.000000" stroke-width="2.000000"/>
	<path id="Vector" d="M98.2451 33.9487L78.4785 4.50354L72.417 1.06635L64.9004 2.92407" stroke="#EB601D" stroke-opacity="1.000000" stroke-width="2.000000"/>
	<path id="Vector" d="M75.084 25.5891C75.084 25.5891 79.207 25.5891 78.1152 29.1182C77.3379 31.6358 75.1416 36.7974 73.9443 39.5518C73.4697 40.6439 72.1377 41.3796 70.6338 41.3796L45.8086 41.3796C45.2031 41.3796 44.5967 41.3244 44.0088 41.2117L27.1953 38.0343" stroke="#EB601D" stroke-opacity="1.000000" stroke-width="2.000000"/>
	<path id="Vector" d="M46.1572 18.6548C46.8691 18.4387 47.6367 18.8411 47.6367 19.4274L46.5928 25.281C46.5928 25.9523 45.6055 26.3455 44.8916 25.9592L38.5869 22.5703C37.8096 22.1519 37.9502 21.2391 38.833 20.9724L38.833 20.9701L46.1572 18.6548Z" stroke="#EB601D" stroke-opacity="1.000000" stroke-width="2.000000"/>
	<path id="Vector" d="M70.3945 29.9782L73.4766 22.3542C73.7979 21.5472 73.0107 20.731 71.9102 20.731L58.71 20.731C57.5811 20.731 56.585 21.292 56.249 22.1174L53.1436 29.6264L49.0771 29.5896C47.9102 29.5781 46.8623 30.1322 46.4609 30.9737L44.9844 34.0591C44.5225 35.0248 45.4521 36.0502 46.7969 36.0548L65.8936 36.1146C67.0967 36.1192 68.1592 35.5191 68.5098 34.6385L68.5127 34.634L70.3945 29.9782Z" stroke="#EB601D" stroke-opacity="1.000000" stroke-width="2.000000"/>
	<path id="Vector" d="M53.1436 29.6241L70.3945 29.6241" stroke="#EB601D" stroke-opacity="1.000000" stroke-width="2.000000"/>
	<path id="Vector" d="M53.4727 16.2131L72.0508 15.8913C72.0508 15.8913 78.25 15.8913 76.7285 9.97327C75.207 4.0553 65.5244 7.05566 65.5244 7.05566L52.3984 10.4078C50.9434 10.7803 49.8125 11.7045 49.5332 12.8587C49.2842 13.8841 49.6504 15.0889 51.9453 15.9579L51.9424 15.9579C52.417 16.1373 52.9453 16.22 53.4727 16.2131Z" stroke="#EB601D" stroke-opacity="1.000000" stroke-width="2.000000"/>
	<path id="Vector" d="M3.07324 30.3174C3.30176 29.8569 3.97363 29.6254 4.5752 29.8005L26.4453 36.1692C27.0469 36.3442 27.3486 36.8594 27.1201 37.32L25.8848 39.8109C25.6562 40.2714 24.9834 40.5029 24.3828 40.3278L2.51172 33.9591C1.91113 33.7841 1.60938 33.2688 1.83789 32.8083L3.07324 30.3174Z" stroke="#EB601D" stroke-opacity="1.000000" stroke-width="2.000000"/>
	<path id="Vector" d="M0.273438 30.9415L2.45508 31.5609" stroke="#EB601D" stroke-opacity="1.000000" stroke-width="2.000000"/>
	<path id="Vector" d="M85.3203 0.208801L85.3203 6.29462" stroke="#EB601D" stroke-opacity="1.000000" stroke-width="2.000000"/>
</svg>
