<svg width="444.849609" height="114.450012" viewBox="0 0 444.85 114.45" fill="none" xmlns="http://www.w3.org/2000/svg" xmlns:xlink="http://www.w3.org/1999/xlink">
	<desc>
			Created with Pixso.
	</desc>
	<defs>
		<clipPath id="clip306_5652">
			<rect id="_дизайн" width="444.850006" height="114.449997" fill="white" fill-opacity="0"/>
		</clipPath>
	</defs>
	<rect id="_дизайн" width="444.850006" height="114.449997" fill="#FFFFFF" fill-opacity="0"/>
	<g clip-path="url(#clip306_5652)">
		<path id="Vector" d="M151.65 36.22L119.45 36.22C119.65 32.77 122.5 30.05 126 30.05L126 15.65C96.2598 14.61 82.3398 4.89999 75.9297 0C69.5195 4.91 55.5596 14.61 25.8203 15.65L25.8203 30.05C29.3203 30.05 32.1699 32.78 32.3701 36.22L0 36.22L0 76.02L30.0898 76.02C30.0898 77.29 29.4199 81.06 21.3301 81.96C26.8701 87.05 59.1602 114.45 75.9297 114.45C92.7002 114.45 125.07 87.05 130.61 81.96C123.05 81.14 121.85 77.82 121.85 76.02L151.64 76.02L151.64 36.22L151.65 36.22Z" fill="#100C08" fill-opacity="1.000000" fill-rule="evenodd"/>
		<path id="Vector" d="M148.43 72.68L3.37012 72.68L3.37012 40.05L148.43 40.05L148.43 72.68Z" fill="#EB601D" fill-opacity="1.000000" fill-rule="evenodd"/>
		<path id="Vector" d="M6.74023 43.04L6.74023 69.31L145.13 69.31L145.13 43.04L6.74023 43.04Z" fill="#100C08" fill-opacity="1.000000" fill-rule="evenodd"/>
		<path id="Vector" d="M16.2402 53.96L13.8301 53.96L13.8301 45.78L10.79 45.78L10.79 66.25L13.8301 66.25L13.8301 57.46L16.2402 57.46L16.2402 66.25L19.29 66.25L19.29 45.78L16.2402 45.78L16.2402 53.96Z" fill="#FFFFFF" fill-opacity="1.000000" fill-rule="nonzero"/>
		<path id="Vector" d="M22.5605 45.78L20.2305 66.24L22.9902 66.24L23.6104 60.92L25.8408 60.92L26.3809 66.24L29.4609 66.24L27.1309 45.78L22.5605 45.78ZM23.9805 57.46L24.6904 49.51L24.8906 49.51L25.4805 57.46L23.9707 57.46L23.9805 57.46Z" fill="#FFFFFF" fill-opacity="1.000000" fill-rule="nonzero"/>
		<path id="Vector" d="M35.6104 45.78L30.5801 45.78L30.5801 66.24L33.6299 66.24L33.6299 57.77C35.5703 57.77 36.0996 58.16 36.0996 59.4L36.0996 66.25L39.1504 66.25L39.1504 58.13C39.1104 56.74 37.9404 55.96 37.7803 55.78C38.8701 54.91 39.1504 53.72 39.1504 52.2L39.1504 49.3C39.1504 46.66 38.0703 45.79 35.6201 45.79L35.6104 45.78ZM35.9805 52.94C35.9805 53.69 35.75 54.6 34.6904 54.6L33.6299 54.6L33.6299 48.6L34.8398 48.6C35.5303 48.6 35.9902 49.09 35.9902 49.87L35.9902 52.94L35.9805 52.94Z" fill="#FFFFFF" fill-opacity="1.000000" fill-rule="nonzero"/>
		<path id="Vector" d="M43.9502 45.78L40.9004 45.78L40.9004 66.25L47.04 66.25L47.04 63.01L43.9502 63.01L43.9502 45.78Z" fill="#FFFFFF" fill-opacity="1.000000" fill-rule="nonzero"/>
		<path id="Vector" d="M51.1104 57.21L54.2207 57.21L54.2207 53.98L51.1104 53.98L51.1104 48.98L54.3604 48.98L54.3604 45.78L48.0703 45.78L48.0703 66.25L54.4199 66.25L54.4199 63.01L51.1104 63.01L51.1104 57.21Z" fill="#FFFFFF" fill-opacity="1.000000" fill-rule="nonzero"/>
		<path id="Vector" d="M61.7695 45.78L60.0791 52.93L58.4395 45.78L55.3096 45.78L58.4395 58.6L58.4395 66.25L61.4893 66.25L61.4893 58.46L64.6191 45.78L61.7695 45.78Z" fill="#FFFFFF" fill-opacity="1.000000" fill-rule="nonzero"/>
		<path id="Vector" d="M63.6797 54.64L69.2598 54.64L69.2598 57.22L63.6797 57.22L63.6797 54.64Z" fill="#FFFFFF" fill-opacity="1.000000" fill-rule="evenodd"/>
		<path id="Vector" d="M74.5693 45.78L70.8896 45.78L70.8896 66.24L75.2295 66.24C77.5898 66.24 78.8496 64.49 78.8496 62.53L78.8496 50.4C78.8496 46.81 77.5898 45.77 74.5693 45.77L74.5693 45.78ZM75.8096 61.49C75.8096 62.81 75.4395 63.01 74.6592 63.01L73.9395 63.01L73.9395 49L74.6592 49C75.4395 49 75.8096 49.2 75.8096 50.52L75.8096 61.48L75.8096 61.49Z" fill="#FFFFFF" fill-opacity="1.000000" fill-rule="nonzero"/>
		<path id="Vector" d="M81.9902 45.78L79.6602 66.24L82.4199 66.24L83.04 60.92L85.2705 60.92L85.8105 66.24L88.8906 66.24L86.5605 45.78L81.9902 45.78ZM83.4102 57.46L84.1201 49.51L84.3203 49.51L84.9102 57.46L83.4004 57.46L83.4102 57.46Z" fill="#FFFFFF" fill-opacity="1.000000" fill-rule="nonzero"/>
		<path id="Vector" d="M92.5195 58.09L91.04 45.78L87.9297 45.78L90.79 66.25L94.1992 66.25L97.0596 45.78L93.9893 45.78L92.5195 58.09Z" fill="#FFFFFF" fill-opacity="1.000000" fill-rule="nonzero"/>
		<path id="Vector" d="M97.9199 45.78L100.97 45.78L100.97 66.24L97.9199 66.24L97.9199 45.78Z" fill="#FFFFFF" fill-opacity="1.000000" fill-rule="evenodd"/>
		<path id="Vector" d="M106.46 45.78L102.78 45.78L102.78 66.24L107.12 66.24C109.48 66.24 110.74 64.49 110.74 62.53L110.74 50.4C110.74 46.81 109.48 45.77 106.46 45.77L106.46 45.78ZM107.7 61.49C107.7 62.81 107.33 63.01 106.55 63.01L105.83 63.01L105.83 49L106.55 49C107.33 49 107.7 49.2 107.7 50.52L107.7 61.48L107.7 61.49Z" fill="#FFFFFF" fill-opacity="1.000000" fill-rule="nonzero"/>
		<path id="Vector" d="M116.36 45.38C114.49 45.38 112.13 46.16 112.13 48.83L112.13 53.22C112.13 56.55 117.57 57.35 117.57 60.22L117.57 62.38C117.57 63.41 116.99 63.64 116.39 63.64C115.79 63.64 115.22 63.41 115.22 62.38L115.22 58.75L112.17 58.75L112.17 63.2C112.17 65.87 114.49 66.65 116.36 66.65C118.229 66.65 120.62 65.87 120.62 63.2L120.62 58.27C120.62 56.2 115.18 53.61 115.18 52.14L115.18 49.87C115.18 48.84 115.76 48.61 116.39 48.61C117.02 48.61 117.61 48.84 117.61 49.87L117.61 52.73L120.66 52.73L120.66 48.83C120.66 46.16 118.26 45.38 116.37 45.38L116.36 45.38Z" fill="#FFFFFF" fill-opacity="1.000000" fill-rule="nonzero"/>
		<path id="Vector" d="M126.229 45.38C124.36 45.38 121.96 46.16 121.96 48.83L121.96 63.2C121.96 65.87 124.36 66.65 126.229 66.65C128.1 66.65 130.55 65.87 130.55 63.2L130.55 48.83C130.55 46.16 128.09 45.38 126.229 45.38ZM127.51 61.97C127.51 63 126.89 63.23 126.26 63.23C125.63 63.23 125.01 63 125.01 61.97L125.01 49.95C125.01 48.92 125.63 48.69 126.26 48.69C126.89 48.69 127.51 48.92 127.51 49.95L127.51 61.97Z" fill="#FFFFFF" fill-opacity="1.000000" fill-rule="nonzero"/>
		<path id="Vector" d="M137.91 45.78L137.91 56.19L135.92 45.78L131.8 45.78L131.8 66.25L134.859 66.25L134.859 54.6L137.28 66.25L141.01 66.25L141.01 45.78L137.91 45.78Z" fill="#FFFFFF" fill-opacity="1.000000" fill-rule="nonzero"/>
		<path id="Vector" d="M134.56 82.56C134.21 82.56 133.88 82.5 133.59 82.37C133.29 82.25 133.04 82.08 132.819 81.86C132.6 81.64 132.439 81.39 132.319 81.09C132.199 80.79 132.14 80.48 132.14 80.13C132.14 79.78 132.199 79.46 132.33 79.16C132.449 78.86 132.63 78.61 132.85 78.39C133.069 78.17 133.33 78.01 133.62 77.88C133.909 77.75 134.229 77.7 134.569 77.7C134.909 77.7 135.229 77.76 135.529 77.89C135.819 78.02 136.08 78.19 136.3 78.41C136.52 78.63 136.689 78.89 136.81 79.18C136.93 79.47 136.989 79.79 136.989 80.12C136.989 80.45 136.93 80.78 136.8 81.08C136.68 81.37 136.51 81.63 136.29 81.85C136.069 82.07 135.819 82.24 135.52 82.36C135.229 82.48 134.909 82.55 134.56 82.55L134.56 82.56ZM134.56 82.3C134.859 82.3 135.149 82.25 135.409 82.13C135.67 82.02 135.899 81.87 136.09 81.67C136.279 81.47 136.439 81.24 136.55 80.98C136.659 80.72 136.72 80.44 136.72 80.14C136.72 79.84 136.67 79.57 136.56 79.31C136.449 79.05 136.3 78.82 136.109 78.62C135.92 78.42 135.689 78.26 135.43 78.15C135.17 78.04 134.88 77.98 134.569 77.98C134.26 77.98 133.979 78.03 133.71 78.14C133.449 78.25 133.22 78.4 133.029 78.6C132.84 78.8 132.68 79.03 132.58 79.29C132.479 79.55 132.42 79.84 132.42 80.15C132.42 80.46 132.47 80.72 132.58 80.98C132.689 81.24 132.83 81.47 133.029 81.67C133.22 81.87 133.449 82.03 133.71 82.14C133.97 82.25 134.26 82.31 134.58 82.31L134.56 82.3ZM133.71 81.57L133.71 78.71L134.529 78.71C134.84 78.71 135.08 78.78 135.25 78.91C135.42 79.04 135.5 79.25 135.5 79.53C135.5 79.74 135.439 79.91 135.33 80.04C135.22 80.17 135.09 80.26 134.93 80.31L135.689 81.57L135.3 81.57L134.609 80.39L134.029 80.39L134.029 81.57L133.689 81.57L133.71 81.57ZM134.04 80.11L134.5 80.11C134.699 80.11 134.859 80.06 134.989 79.96C135.12 79.86 135.18 79.72 135.18 79.54C135.18 79.36 135.12 79.21 135 79.12C134.88 79.04 134.72 78.99 134.51 78.99L134.04 78.99L134.04 80.1L134.04 80.11Z" fill="#100C08" fill-opacity="1.000000" fill-rule="nonzero"/>
		<path id="Vector" d="M29.1094 27.59L29.1094 18.61C56.0293 17.21 69.3096 9.13998 75.9297 4.16998C83.0293 9.19998 95.79 17.21 122.71 18.61L122.71 27.59L122.699 27.59C119.04 28.91 116.39 32.13 116.27 36.22L113.04 36.22C113.14 31.59 115.67 27.79 119.409 25.58L119.409 21.51C97.6797 19.98 83.4893 13.24 75.9297 8.03998C69.3301 12.89 56.0596 19.38 32.4092 21.51L32.4092 25.58C36.1396 27.79 38.6699 31.59 38.7793 36.22L35.5498 36.22C35.4297 32.13 32.7598 28.91 29.0996 27.59L29.1094 27.59Z" fill="#EB601D" fill-opacity="1.000000" fill-rule="evenodd"/>
		<path id="Vector" d="M123.13 83.31C114.301 92.29 87.6104 111 75.9307 111C64.25 111 37.6504 92.29 28.8203 83.31C33.3906 81.29 34.1299 78.34 34.4307 76.02L38.1006 76.02C37.8799 78.19 37.4307 81.66 34.4307 83.75C37.8701 87.04 63.6504 107.7 75.9307 107.7C88.21 107.7 114.07 87.04 117.511 83.75C114.521 81.65 114.07 78.19 113.84 76.02L117.511 76.02C117.811 78.34 118.561 81.28 123.12 83.31L123.13 83.31Z" fill="#EB601D" fill-opacity="1.000000" fill-rule="evenodd"/>
		<path id="Vector" d="M101.649 32.04L105.02 32.04C105.51 32.04 106.59 32.45 106.59 33.35L106.59 36.22L110.11 36.22L110.11 32.56C110.11 31.96 109.399 30.95 108.88 30.65C110 30.09 110.11 29.3 110.11 28.4L110.11 25.89C110.11 23.57 107.79 22.78 106.59 22.52L98.1299 20.76L98.1299 36.21L101.649 36.21L101.649 32.03L101.649 32.04ZM101.649 24.93L105.84 25.79C106.59 25.94 106.59 26.65 106.59 27.29C106.59 27.93 106.479 28.53 105.8 28.53L101.649 28.53L101.649 24.94L101.649 24.93Z" fill="#EB601D" fill-opacity="1.000000" fill-rule="nonzero"/>
		<path id="Vector" d="M86.8291 36.22L91.4297 36.22C94.5 36.22 95.1699 33.95 95.1396 32.78L95.1396 23.35C95.1797 21.1 94.5 19.79 93.0098 19.2L86.8691 16.84C85 16.17 83.3096 17.21 83.3096 18.86L83.3096 32.63C83.3096 35.4 85.29 36.21 86.8291 36.21L86.8291 36.22ZM86.8291 21.89C86.8291 21.07 87.4297 20.84 87.9492 21.07L90.79 22.19C91.54 22.56 91.6094 23.09 91.6094 23.91L91.6094 31.54C91.6094 32.21 91.3096 32.63 90.4893 32.63L87.9092 32.63C87.1191 32.63 86.8193 32.11 86.8193 31.47L86.8193 21.89L86.8291 21.89Z" fill="#EB601D" fill-opacity="1.000000" fill-rule="nonzero"/>
		<path id="Vector" d="M74.1797 36.22L77.9902 36.22L77.9902 16.73L82.6299 19.24L82.6299 15.35L75.9297 11.68L69.54 15.16L69.54 19.05L74.1797 16.51L74.1797 36.22Z" fill="#EB601D" fill-opacity="1.000000" fill-rule="nonzero"/>
		<path id="Vector" d="M60.9697 36.22L65.5693 36.22C67.0996 36.22 69.0898 35.4 69.0898 32.64L69.0898 18.87C69.0898 17.22 67.4092 16.18 65.5293 16.85L59.3896 19.21C57.8896 19.81 57.2197 21.12 57.2598 23.36L57.2598 32.79C57.2197 33.95 57.8994 36.23 60.9697 36.23L60.9697 36.22ZM60.7793 23.92C60.7793 23.1 60.8496 22.57 61.5996 22.2L64.4395 21.08C64.96 20.86 65.5596 21.08 65.5596 21.9L65.5596 31.48C65.5596 32.12 65.2598 32.64 64.4697 32.64L61.8896 32.64C61.0693 32.64 60.7695 32.23 60.7695 31.55L60.7695 23.92L60.7793 23.92Z" fill="#EB601D" fill-opacity="1.000000" fill-rule="nonzero"/>
		<path id="Vector" d="M51.6494 36.22L55.1592 36.22L55.1592 20.51L51.8691 21.37L48.7998 28.52L46.0293 22.61L42.5195 23.24L42.5195 36.22L46.0293 36.22L46.0293 30.06L48.9092 36.22L51.6494 29.83L51.6494 36.22Z" fill="#EB601D" fill-opacity="1.000000" fill-rule="nonzero"/>
		<path id="Vector" d="M46.2197 85.4C46.4199 85.53 54.3203 91.69 54.3203 91.69L54.3203 95.44C54.3203 95.44 43.2002 87.14 42.8701 86.94C42.4697 86.67 41.9297 85.73 41.7998 85.07C41.6699 84.4 41.7998 79.04 41.7998 78.44C41.7998 77.84 42.4697 76.03 43.4102 76.03L52.0498 76.03L52.0498 79.58L46.8896 79.58C46.0898 79.51 45.6201 79.78 45.6201 80.52L45.6201 84.47C45.6201 84.74 45.9502 85.27 46.2197 85.41L46.2197 85.4Z" fill="#EB601D" fill-opacity="1.000000" fill-rule="evenodd"/>
		<path id="Vector" d="M54.1201 76.03L57.7402 76.03L59.6797 82.06L62.8301 76.03L66.25 76.03L61.3604 86.61L61.3604 99.27C61.3604 99.87 57.9502 98 57.8799 97.53C57.75 97.06 57.8799 86.48 57.8799 86.48L54.1299 76.03L54.1201 76.03Z" fill="#EB601D" fill-opacity="1.000000" fill-rule="evenodd"/>
		<path id="Vector" d="M71 98.98C71.2002 99.38 75.6201 101.46 75.6201 101.46L75.6201 105.61C75.6201 105.61 68.5195 102.6 67.8496 101.93C67.1094 101.19 67.0498 100.39 67.0498 100.06L67.0498 79.03C67.0498 77.76 69.5898 76.03 70.2002 76.03L75.4199 76.03L75.4199 79.84C75.4199 79.97 72.4102 79.97 71.6699 79.84C71.2695 79.77 70.7295 80.31 70.7295 82.18L70.7295 97.72C70.7295 98.05 70.7295 98.66 71 98.99L71 98.98Z" fill="#EB601D" fill-opacity="1.000000" fill-rule="evenodd"/>
		<path id="Vector" d="M86.0693 97.98L86.0693 101.6C86.0693 101.6 80.1797 104.21 79.2393 104.68C78.6992 104.95 78.0996 104.48 78.0996 103.68L78.0996 76.04L82.1191 76.04L82.1191 99.6L86.0693 97.99L86.0693 97.98Z" fill="#EB601D" fill-opacity="1.000000" fill-rule="evenodd"/>
		<path id="Vector" d="M94.7002 85.26L94.7002 88.34L90.9502 88.34L90.9502 95.77L95.5 93.63L95.5 96.91L89.4697 99.92C88.7295 100.25 87.7998 99.92 87.7998 99.25L87.7998 77.35C87.7998 76.48 88.54 76.01 89.1396 76.01L96.1699 76.01L96.1699 79.83L90.9502 79.83L90.9502 85.25L94.7002 85.25L94.7002 85.26Z" fill="#EB601D" fill-opacity="1.000000" fill-rule="evenodd"/>
		<path id="Vector" d="M106.28 85.52C106.28 85.52 100.39 85.65 99.3203 85.52C98.3203 85.39 97.9102 85.19 97.9102 84.45C97.9102 83.78 97.8398 79.36 97.9102 78.09C98.04 76.82 100.05 76.16 100.99 76.03C101.86 75.96 109.83 76.03 109.83 76.03L109.83 79.5L101.33 79.5C101 79.5 101.061 82.38 101.33 82.38L108.96 82.38C110.03 82.38 109.9 82.65 109.9 83.12L109.9 87.41C109.9 87.88 109.23 88.41 108.96 88.68C108.76 88.88 97.5801 95.64 97.5801 95.64L97.5801 92.63C97.5801 92.63 106.49 87.01 106.55 86.6C106.68 86 106.28 85.53 106.28 85.53L106.28 85.52Z" fill="#EB601D" fill-opacity="1.000000" fill-rule="evenodd"/>
		<path id="Vector" d="M330.511 57.68L332.92 47.09L327.12 45.33L325.131 54.06L327.301 54.06L326.48 57.68L317.65 57.68L321.881 39.1L337 43.87L354.261 39.1L350.03 57.68L341.2 57.68L342.021 54.06L344.19 54.06L346.181 45.33L339.58 47.09L337.17 57.68L330.511 57.68Z" fill="#FFFFFF" fill-opacity="1.000000" fill-rule="nonzero"/>
		<path id="Vector" d="M362.79 48.78L364.01 43.44L377.2 43.44L376.08 48.35L382.79 48.13L384.68 39.82L358.17 39.82L356.08 49L362.79 48.78Z" fill="#FFFFFF" fill-opacity="1.000000" fill-rule="nonzero"/>
		<path id="Vector" d="M375.73 49.91L374.78 54.06L361.591 54.06L362.631 49.47L356.03 49.25L354.11 57.68L380.62 57.68L382.341 50.13L375.73 49.91Z" fill="#FFFFFF" fill-opacity="1.000000" fill-rule="nonzero"/>
		<path id="Vector" d="M393.07 43.44L397.36 43.44L396.391 47.68L403.101 47.46L404.021 43.44L408.3 43.44L407.49 47.01L414.2 46.81L415.79 39.82L387.23 39.82L385.41 47.82L392.17 47.56L393.07 43.44Z" fill="#FFFFFF" fill-opacity="1.000000" fill-rule="nonzero"/>
		<path id="Vector" d="M395.73 50.57L394.12 57.68L400.78 57.68L402.34 50.79L395.73 50.57Z" fill="#FFFFFF" fill-opacity="1.000000" fill-rule="nonzero"/>
		<path id="Vector" d="M423.41 46.8L424.17 43.44L437.37 43.44L436.7 46.36L443.41 46.15L444.851 39.82L418.34 39.82L416.7 47.02L423.41 46.8Z" fill="#FFFFFF" fill-opacity="1.000000" fill-rule="nonzero"/>
		<path id="Vector" d="M435.439 51.9L434.949 54.06L421.76 54.06L422.35 51.46L415.739 51.24L414.27 57.68L440.789 57.68L442.05 52.12L435.439 51.9Z" fill="#FFFFFF" fill-opacity="1.000000" fill-rule="nonzero"/>
		<path id="Vector" d="M268.9 38.76L265 55.55L251.021 58.04L262.78 72.93L246.76 72.93L237 60.53L229 61.95L226.45 72.93L214.87 72.93L222.811 38.77L268.91 38.77L268.9 38.76ZM255.71 45.69L232.771 45.69L230.771 54.28L254.7 50.03L255.71 45.69Z" fill="#C00D0D" fill-opacity="1.000000" fill-rule="nonzero"/>
		<path id="Vector" d="M273.83 38.76L319.439 38.76L316.68 50.62L305.55 48.67L306.24 45.69L283.79 45.69L282.71 50.33L315.37 56.24L311.49 72.93L265.88 72.93L268.49 61.7L279.64 63.55L279.07 65.99L301.52 65.99L302.63 61.21L269.97 55.3L273.82 38.75L273.83 38.76Z" fill="#C00D0D" fill-opacity="1.000000" fill-rule="nonzero"/>
		<path id="Vector" d="M316.601 62.49L335.061 62.49L334.11 66.11L329.58 65.51L329.82 64.6L320.73 64.6L320.36 66.02L333.66 67.82L332.32 72.92L313.86 72.92L314.761 69.49L319.301 70.06L319.101 70.81L328.19 70.81L328.57 69.35L315.271 67.55L316.601 62.5L316.601 62.49Z" fill="#FFFFFF" fill-opacity="1.000000" fill-rule="nonzero"/>
		<path id="Vector" d="M354.49 69.08L353.48 72.92L334.82 72.92L337.561 62.49L356.221 62.49L355.21 66.33L350.66 65.79L350.971 64.6L341.69 64.6L340.061 70.8L349.34 70.8L349.65 69.61L354.48 69.07L354.49 69.08Z" fill="#FFFFFF" fill-opacity="1.000000" fill-rule="nonzero"/>
		<path id="Vector" d="M374.631 72.92L369.94 72.92L371.04 68.73L361.771 68.73L360.671 72.92L355.98 72.92L358.721 62.49L363.41 62.49L362.32 66.62L371.591 66.62L372.681 62.49L377.37 62.49L374.631 72.92Z" fill="#FFFFFF" fill-opacity="1.000000" fill-rule="nonzero"/>
		<path id="Vector" d="M396.16 72.92L377.5 72.92L380.24 62.49L398.9 62.49L396.16 72.92ZM393.66 64.6L384.38 64.6L382.75 70.8L392.03 70.8L393.66 64.6Z" fill="#FFFFFF" fill-opacity="1.000000" fill-rule="nonzero"/>
		<path id="Vector" d="M417.69 72.92L399.03 72.92L401.771 62.49L420.431 62.49L417.69 72.92ZM415.19 64.6L405.91 64.6L404.28 70.8L413.561 70.8L415.19 64.6Z" fill="#FFFFFF" fill-opacity="1.000000" fill-rule="nonzero"/>
		<path id="Vector" d="M438.47 69.01L437.439 72.93L420.56 72.93L423.3 62.5L427.989 62.5L425.8 70.82L433.31 70.82L433.64 69.55L438.47 69.01Z" fill="#FFFFFF" fill-opacity="1.000000" fill-rule="nonzero"/>
		<path id="Vector" d="M179.49 50.52L187.021 58.04" stroke="#FFFFFF" stroke-opacity="1.000000" stroke-width="0.500000"/>
		<path id="Vector" d="M187.021 50.52L179.49 58.04" stroke="#FFFFFF" stroke-opacity="1.000000" stroke-width="0.500000"/>
	</g>
</svg>
