<svg width="56.841797" height="60.000000" viewBox="0 0 56.8418 60" fill="none" xmlns="http://www.w3.org/2000/svg" xmlns:xlink="http://www.w3.org/1999/xlink">
	<desc>
			Created with Pixso.
	</desc>
	<defs>
		<clipPath id="clip308_5771">
			<rect id="_Режим_изоляции" width="56.842106" height="60.000000" fill="white" fill-opacity="0"/>
		</clipPath>
	</defs>
	<rect id="_Режим_изоляции" width="56.842106" height="60.000000" fill="#FFFFFF" fill-opacity="0"/>
	<g clip-path="url(#clip308_5771)">
		<path id="Vector" d="M41.0215 60C40.8086 60 40.5996 59.9263 40.4346 59.7935C40.2012 59.6058 34.6611 55.209 27.6738 52.1422C19.0371 48.3503 8.98926 48.2449 8.88965 48.2449C8.58203 48.2449 8.29297 48.089 8.12012 47.8318C5.28027 43.6205 1.7793 38.115 1.2627 36.4562C1.13477 36.024 0 32.0719 0 28.0988C0 12.6066 12.6113 0 28.1123 0C48.3818 0 54.5117 19.5222 56.2051 27.9175C57.4531 34.0996 56.5781 41.1312 56.001 45.7809C55.5049 49.771 54.9443 51.6532 53.6875 53.5333C51.0459 57.4917 42.2383 59.7323 41.2402 59.9747C41.167 59.9916 41.0928 60.0021 41.0186 60.0021L41.0215 60ZM28.1123 1.87384C13.6445 1.87384 1.875 13.6394 1.875 28.101C1.875 31.8674 3.00684 35.7395 3.05371 35.9039C3.51953 37.3772 7.18652 43.0682 9.28223 46.2025C9.3584 46.3163 9.48242 46.3859 9.61719 46.3901C12.0635 46.4744 20.6475 47.014 28.4268 50.4286C34.4189 53.0591 39.2666 56.5432 41.0713 57.9175C41.1455 57.9744 41.2363 58.0039 41.3271 58.0039C41.3623 58.0039 41.4004 57.9998 41.4365 57.9891C42.3516 57.7405 44.7383 57.0491 47.1572 55.9615C49.6748 54.8318 51.3467 53.6661 52.1289 52.4941C53.2109 50.8733 53.6816 49.2504 54.1406 45.5511C54.7041 41.0173 55.5557 34.1692 54.3691 28.2864C49.7314 5.3053 35.9287 1.87384 28.1123 1.87384Z" fill="#D3591F" fill-opacity="1.000000" fill-rule="nonzero"/>
		<path id="Vector" d="M49.3203 22.2539C48.9346 22.2539 48.582 22.0115 48.4453 21.6511C44.4365 11.1101 37.5947 5.76477 28.1143 5.76477C27.5977 5.76477 27.1777 5.34534 27.1777 4.82892C27.1777 4.3125 27.5977 3.89307 28.1143 3.89307C38.3066 3.89307 45.9443 9.80328 50.1973 20.9871C50.3809 21.4698 50.1387 22.0115 49.6553 22.1949C49.5479 22.2349 49.4365 22.256 49.3223 22.256L49.3203 22.2539Z" fill="#D3591F" fill-opacity="1.000000" fill-rule="nonzero"/>
		<path id="Vector" d="M50.793 26.8741C50.3672 26.8741 49.9961 26.5854 49.8877 26.1744C49.8164 25.8983 49.7402 25.6201 49.6602 25.3376C49.5928 25.0973 49.6221 24.8444 49.7451 24.6252C49.8672 24.406 50.0674 24.25 50.3076 24.1826C50.3916 24.1594 50.4785 24.1467 50.5625 24.1467C50.9785 24.1467 51.3496 24.4292 51.4629 24.8317C51.5459 25.1248 51.623 25.4135 51.6992 25.7002C51.8301 26.1997 51.5303 26.7119 51.0312 26.8425C50.9531 26.8616 50.873 26.8721 50.793 26.8721L50.793 26.8741Z" fill="#D3591F" fill-opacity="1.000000" fill-rule="nonzero"/>
		<path id="Vector" d="M55.877 37.6892C33.2451 37.6892 21.5947 33.1154 21.1104 32.9214C20.751 32.7781 20.5156 32.4219 20.5215 32.0341L20.6836 23.2847C20.6904 22.9791 20.8438 22.6966 21.0977 22.5259C21.2637 22.4142 25.2979 19.7352 35.8447 15.9875C40.2305 14.432 45.2363 13.2306 48.6631 12.4971C48.7324 12.4823 48.8008 12.4739 48.8652 12.4739C49.2998 12.4739 49.6836 12.7858 49.7764 13.2158C49.8291 13.4603 49.7832 13.7111 49.6455 13.9219C49.5107 14.1327 49.2998 14.276 49.0557 14.3287C46.291 14.921 40.9814 16.152 36.4717 17.7538C28.418 20.6141 24.1953 22.8715 22.7529 23.7083C22.626 23.7821 22.5459 23.917 22.542 24.0646L22.4111 31.0919C22.4062 31.2753 22.5244 31.4418 22.7002 31.4987C25.7324 32.5104 37.083 35.8154 55.875 35.8154C56.3916 35.8154 56.8105 36.2349 56.8105 36.7512C56.8105 37.2677 56.3916 37.6871 55.875 37.6871L55.877 37.6892Z" fill="#D3591F" fill-opacity="1.000000" fill-rule="nonzero"/>
	</g>
</svg>
