<svg xmlns="http://www.w3.org/2000/svg" xmlns:xlink="http://www.w3.org/1999/xlink" viewBox="0,0,256,256" width="25px" height="25px"><g fill="#ffffff" fill-rule="nonzero" stroke="none" stroke-width="1" stroke-linecap="butt" stroke-linejoin="miter" stroke-miterlimit="10" stroke-dasharray="" stroke-dashoffset="0" font-family="none" font-weight="none" font-size="none" text-anchor="none" style="mix-blend-mode: normal"><g transform="scale(5.12,5.12)"><path d="M25,12c-13.508,0 -15.31197,0.13547 -17.04297,1.85547c-1.731,1.721 -1.95703,4.45553 -1.95703,11.14453c0,6.689 0.22603,9.42353 1.95703,11.14453c1.731,1.72 3.53497,1.85547 17.04297,1.85547c13.508,0 15.31197,-0.13547 17.04297,-1.85547c1.731,-1.721 1.95703,-4.45553 1.95703,-11.14453c0,-6.689 -0.22603,-9.42353 -1.95703,-11.14453c-1.731,-1.72 -3.53497,-1.85547 -17.04297,-1.85547zM25,13c13.937,0 15.20775,0.36206 16.21875,1.41406c1.012,1.052 1.78125,1.78594 1.78125,10.58594c0,8.8 -0.77702,9.54959 -1.79102,10.55859c-1.034,1.03 -2.04398,1.44141 -16.20898,1.44141c-14.165,0 -15.2683,-0.44505 -16.2793,-1.49805c-1.012,-1.052 -1.7207,-1.81495 -1.7207,-10.50195c0,-8.687 0.76925,-9.53394 1.78125,-10.58594c1.011,-1.052 3.16875,-1.41406 16.21875,-1.41406zM21.75977,19.41406v11.17188l9.7168,-5.63086z"></path></g></g></svg>