<svg width="43.541016" height="48.084106" viewBox="0 0 43.541 48.0841" fill="none" xmlns="http://www.w3.org/2000/svg" xmlns:xlink="http://www.w3.org/1999/xlink">
	<desc>
			Created with Pixso.
	</desc>
	<defs/>
	<path id="Vector" d="M1 16.1775C1 25.8157 14.8467 41.0896 19.9316 46.3652C20.1426 46.5879 20.4189 46.7691 20.7383 46.894C21.0576 47.019 21.4121 47.0841 21.7705 47.0841C22.1289 47.0841 22.4824 47.019 22.8018 46.894C23.1221 46.7691 23.3984 46.5879 23.6094 46.3652C28.6934 41.0918 42.541 25.8235 42.541 16.1775C42.541 7.80109 33.2373 1 21.7705 1C10.3037 1 1 7.80109 1 16.1775Z" stroke="#EB601D" stroke-opacity="1.000000" stroke-width="2.000000" stroke-linejoin="round"/>
	<path id="Vector" d="M21.7705 22.2707C17.9463 22.2707 14.8467 19.8899 14.8467 16.9531C14.8467 14.0162 17.9463 11.6354 21.7705 11.6354C25.5938 11.6354 28.6934 14.0162 28.6934 16.9531C28.6934 19.8899 25.5938 22.2707 21.7705 22.2707Z" stroke="#EB601D" stroke-opacity="1.000000" stroke-width="2.000000" stroke-linejoin="round"/>
</svg>
